#!OML:ASF G:\JayActor3\Patient Classification 1\Patient 1\Session 2\male.ASF
:FULLY-SPECIFIED
:DEGREES
2688
root 40.3361 16.7792 -6.51369 3268.31 83.0275 -334.029
lowerback -2.75951 -0.283134 -2.82119
upperback 5.34835 -0.142438 0.271496
thorax 7.14041 -0.201833 1.85631
lowerneck -10.3152 -1.13086 1.09803
upperneck 23.3684 -1.72334 1.40872
head 9.01617 -0.403518 0.134363
rclavicle -1.78906e-015 -3.18055e-015
rhumerus -28.2528 -9.4611 -82.765
rradius 24.5654
rwrist -1.68046
rhand -21.8748 6.44615
rfingers 7.12502
rthumb 4.52971 -23.4854
lclavicle -1.78906e-015 -3.18055e-015
lhumerus -24.4119 13.0706 86.2667
lradius 16.055
lwrist 0.361951
lhand -18.0497 15.9466
lfingers 7.12502
lthumb 8.22233 45.7666
rfemur -27.8331 -10.8666 26.7164
rtibia 32.2214
rfoot -24.6943 -22.971
rtoes 34.811
lfemur 9.59507 11.6472 -22.7909
ltibia 23.9824
lfoot -5.30651 2.35662
ltoes -20.2938
2689
root 40.4337 16.7891 -6.48689 3267.1 82.9389 -335.226
lowerback -2.78142 -0.324404 -2.64575
upperback 5.31969 -0.214541 0.343095
thorax 7.12478 -0.230098 1.82636
lowerneck -10.3638 -1.13418 1.10988
upperneck 23.4205 -1.7446 1.45838
head 9.04393 -0.40624 0.146789
rclavicle -1.98785e-016 -3.97569e-015
rhumerus -28.3759 -9.36919 -82.7369
rradius 24.8385
rwrist -1.92017
rhand -21.8936 6.45263
rfingers 7.12502
rthumb 4.51153 -23.4793
lclavicle -1.98785e-016 -3.97569e-015
lhumerus -25.0195 13.2496 85.9549
lradius 16.0786
lwrist 0.421146
lhand -17.9074 15.881
lfingers 7.12502
lthumb 8.35966 45.6956
rfemur -27.3944 -10.991 26.8405
rtibia 32.1955
rfoot -24.4925 -22.7459
rtoes 35.1183
lfemur 8.8597 12.019 -22.3883
ltibia 25.7783
lfoot -4.53571 2.10894
ltoes -19.9681
2690
root 40.5294 16.7979 -6.46038 3265.7 82.8261 -336.596
lowerback -2.78407 -0.358648 -2.45554
upperback 5.29097 -0.27866 0.417326
thorax 7.09716 -0.253519 1.79158
lowerneck -10.4028 -1.13661 1.12391
upperneck 23.4454 -1.76612 1.51081
head 9.06053 -0.409358 0.159743
rclavicle -4.47266e-015 1.35174e-014
rhumerus -28.5035 -9.19743 -82.7358
rradius 25.1611
rwrist -2.23408
rhand -21.903 6.45388
rfingers 7.12502
rthumb 4.50245 -23.4783
lclavicle -4.47266e-015 1.35174e-014
lhumerus -25.6195 13.3833 85.6625
lradius 16.1445
lwrist 0.505326
lhand -17.7913 15.804
lfingers 7.12502
lthumb 8.47173 45.6141
rfemur -26.939 -11.087 26.9761
rtibia 32.145
rfoot -24.3683 -22.461
rtoes 35.3184
lfemur 8.11351 12.3831 -21.9738
ltibia 27.5927
lfoot -3.69453 1.8927
ltoes -19.4854
2691
root 40.623 16.8059 -6.43424 3264.19 82.6788 -338.082
lowerback -2.7686 -0.383391 -2.25977
upperback 5.26287 -0.330644 0.493663
thorax 7.0589 -0.270585 1.75699
lowerneck -10.4302 -1.14041 1.12674
upperneck 23.4497 -1.7898 1.57363
head 9.06803 -0.413925 0.177909
rclavicle -1.59028e-014 5.96354e-015
rhumerus -28.6303 -8.95304 -82.7562
rradius 25.5189
rwrist -2.6081
rhand -21.9074 6.45572
rfingers 7.12502
rthumb 4.49819 -23.4765
lclavicle -1.59028e-014 5.96354e-015
lhumerus -26.21 13.4948 85.3894
lradius 16.249
lwrist 0.603663
lhand -17.7127 15.7377
lfingers 7.12502
lthumb 8.54757 45.5446
rfemur -26.4703 -11.151 27.1156
rtibia 32.0732
rfoot -24.2983 -22.1372
rtoes 35.4227
lfemur 7.35942 12.7341 -21.56
ltibia 29.4257
lfoot -2.78173 1.71188
ltoes -18.8457
2692
root 40.7142 16.813 -6.40864 3262.58 82.4929 -339.66
lowerback -2.73663 -0.395443 -2.0564
upperback 5.23322 -0.366195 0.571291
thorax 7.00844 -0.279063 1.72099
lowerneck -10.4418 -1.14686 1.12357
upperneck 23.4317 -1.81738 1.64334
head 9.06497 -0.420706 0.199037
rclavicle -8.94531e-016 9.14409e-015
rhumerus -28.753 -8.65228 -82.7909
rradius 25.9005
rwrist -3.02182
rhand -21.9086 6.46068
rfingers 7.12502
rthumb 4.49703 -23.4716
lclavicle -8.94531e-016 9.14409e-015
lhumerus -26.7897 13.5784 85.1397
lradius 16.3937
lwrist 0.726267
lhand -17.6744 15.6964
lfingers 7.12502
lthumb 8.58458 45.5018
rfemur -25.9993 -11.1864 27.2617
rtibia 31.9837
rfoot -24.2525 -21.7933
rtoes 35.4503
lfemur 6.59416 13.07 -21.1516
ltibia 31.2722
lfoot -1.80682 1.56458
ltoes -18.0251
2693
root 40.8029 16.8196 -6.38384 3260.94 82.2636 -341.268
lowerback -2.69058 -0.397684 -1.8512
upperback 5.20228 -0.388462 0.647593
thorax 6.94779 -0.280798 1.68379
lowerneck -10.4333 -1.15317 1.11244
upperneck 23.3925 -1.84553 1.72517
head 9.05101 -0.427745 0.225621
rclavicle -1.07344e-014 -1.19271e-015
rhumerus -28.8635 -8.31025 -82.839
rradius 26.2956
rwrist -3.4434
rhand -21.9091 6.46849
rfingers 7.12502
rthumb 4.49659 -23.4638
lclavicle -1.07344e-014 -1.19271e-015
lhumerus -27.3551 13.6417 84.9105
lradius 16.5777
lwrist 0.881618
lhand -17.6733 15.7004
lfingers 7.12502
lthumb 8.5856 45.5058
rfemur -25.5339 -11.1911 27.4082
rtibia 31.8823
rfoot -24.2133 -21.4477
rtoes 35.4376
lfemur 5.81455 13.3915 -20.7589
ltibia 33.1218
lfoot -0.785915 1.45384
ltoes -17.0915
